<svg width="412" height="182" viewBox="0 0 412 182" fill="none" xmlns="http://www.w3.org/2000/svg">
<path d="M104.999 90.9375C104.485 90.9375 103.984 90.6695 103.706 90.1921L73.8868 38.4771C73.4763 37.7635 73.7219 36.8523 74.4355 36.4386C75.1511 36.0282 76.0592 36.2727 76.4728 36.9862L106.292 88.7013C106.703 89.4137 106.458 90.325 105.745 90.7386C105.509 90.8726 105.252 90.9375 104.999 90.9375Z" fill="#F6F6F6"/>
<path d="M85.6782 90.9374H5.35792C4.82518 90.9374 4.33285 90.6545 4.06807 90.192C3.80011 89.7316 3.80011 89.1637 4.06488 88.7022L53.8553 2.24431C54.1222 1.78388 54.6145 1.4989 55.1472 1.4989H75.5955C76.4196 1.4989 77.0863 2.16562 77.0863 2.98972C77.0863 3.81275 76.4196 4.47948 75.5955 4.47948H56.0096L7.93655 87.9557H85.6782C86.5012 87.9557 87.1679 88.6225 87.1679 89.4455C87.1679 90.2707 86.5012 90.9374 85.6782 90.9374Z" fill="#F6F6F6"/>
<path d="M85.6781 90.9375H5.35788C4.53379 90.9375 3.86707 90.2708 3.86707 89.4467C3.86707 88.6237 4.53379 87.957 5.35788 87.957H83.0984L64.2282 55.2398C63.8178 54.5273 64.0623 53.616 64.7758 53.2024C65.4893 52.7919 66.4006 53.0365 66.8143 53.75L86.9712 88.7024C87.2359 89.1649 87.2359 89.7328 86.968 90.1921C86.7021 90.6515 86.2109 90.9375 85.6781 90.9375Z" fill="#F6F6F6"/>
<path d="M34.3917 107.819H15.3077C14.4836 107.819 13.8169 107.152 13.8169 106.329C13.8169 105.505 14.4836 104.839 15.3077 104.839H34.3906C35.2137 104.839 35.8804 105.505 35.8804 106.329C35.8814 107.152 35.2147 107.819 34.3917 107.819Z" fill="#F6F6F6"/>
<path d="M85.6782 90.9375H5.35792C4.82518 90.9375 4.33285 90.6515 4.06807 90.1921C3.80011 89.7317 3.80011 89.1639 4.06488 88.7024L24.2196 53.75C24.6333 53.0365 25.5382 52.7919 26.2581 53.2024C26.9716 53.616 27.2162 54.5273 26.8057 55.2398L7.93655 87.9559H85.6782C86.5012 87.9559 87.1679 88.6226 87.1679 89.4457C87.1679 90.2708 86.5012 90.9375 85.6782 90.9375Z" fill="#F6F6F6"/>
<path d="M114.706 107.819H34.3918C33.5677 107.819 32.9009 107.153 32.9009 106.33C32.9009 105.505 33.5677 104.839 34.3918 104.839H112.127L93.2589 72.1258C92.8484 71.4122 93.093 70.501 93.8065 70.0873C94.52 69.68 95.4303 69.9193 95.8439 70.6349L115.999 105.584C116.263 106.048 116.263 106.615 115.995 107.074C115.731 107.533 115.238 107.819 114.706 107.819Z" fill="#F6F6F6"/>
<path d="M85.6782 90.9375H25.8062C24.9821 90.9375 24.3154 90.2708 24.3154 89.4467C24.3154 88.6236 24.9821 87.9569 25.8062 87.9569H85.6782C86.5013 87.9569 87.168 88.6236 87.168 89.4467C87.168 90.2708 86.5013 90.9375 85.6782 90.9375Z" fill="#F6F6F6"/>
<path d="M75.57 73.4124H35.8644C35.3317 73.4124 34.8394 73.1296 34.5746 72.667C34.3066 72.2066 34.3066 71.6388 34.5714 71.1773L74.277 2.23062C74.6874 1.51711 75.5955 1.27254 76.3154 1.68299C77.0278 2.09344 77.2724 3.00474 76.863 3.72144L38.4431 70.4308H75.57C76.393 70.4308 77.0597 71.0975 77.0597 71.9205C77.0597 72.7457 76.3941 73.4124 75.57 73.4124Z" fill="#F6F6F6"/>
<path d="M75.57 73.4125H55.4854C54.9527 73.4125 54.4604 73.1296 54.1956 72.6671C53.9276 72.2066 53.9276 71.6388 54.1924 71.1773L73.8846 36.9853C74.2982 36.2717 75.2031 36.0272 75.922 36.4376C76.6355 36.8481 76.879 37.7594 76.4696 38.4761L58.0651 70.4308H75.57C76.393 70.4308 77.0598 71.0976 77.0598 71.9206C77.0598 72.7458 76.3941 73.4125 75.57 73.4125Z" fill="#F6F6F6"/>
<path d="M15.3077 107.819C14.7984 107.819 14.3007 107.558 14.0232 107.086L4.07341 90.2038C3.65445 89.4934 3.89051 88.5832 4.60083 88.1632C5.30796 87.7464 6.22244 87.9792 6.6414 88.6896L16.5922 105.572C17.0112 106.283 16.7751 107.196 16.0648 107.613C15.8266 107.752 15.5672 107.819 15.3077 107.819Z" fill="#F6F6F6"/>
<path d="M114.706 107.819C114.429 107.819 114.152 107.744 113.905 107.586C113.213 107.144 113.005 106.224 113.448 105.528L123.704 89.4083L75.5965 5.97353L37.1829 72.6807C36.7661 73.3943 35.8612 73.6335 35.1445 73.2284C34.431 72.8179 34.1864 71.9066 34.5969 71.191L74.3024 2.24435C74.8383 1.32455 76.3526 1.32455 76.8885 2.24435L126.739 88.7023C127.017 89.1818 127.002 89.7794 126.705 90.2473L115.962 107.129C115.677 107.575 115.198 107.819 114.706 107.819Z" fill="#F6F6F6"/>
<path d="M167.603 106.047H168.602L168.927 105.102L175.604 85.676H214.357L221.034 105.102L221.359 106.047H222.358H239.163H241.135L240.484 104.186L205.615 4.33765L205.287 3.39923H204.293H185.808H184.814L184.486 4.33765L149.617 104.186L148.966 106.047H150.938H167.603ZM263.965 103.482L263.974 103.486L263.984 103.49C269.414 105.874 275.491 107.052 282.192 107.052C289.282 107.052 295.492 105.677 300.774 102.871L300.782 102.866C306.112 99.9877 310.186 96.1847 312.945 91.4447C315.775 86.7423 317.201 81.7149 317.201 76.3857C317.201 69.8754 315.71 64.5247 312.578 60.4797C309.644 56.4774 306.006 53.4999 301.669 51.5805C297.568 49.7245 292.269 47.8861 285.793 46.0594L285.785 46.0572C280.954 44.7248 277.187 43.4986 274.46 42.3814C271.826 41.3019 269.667 39.8808 267.954 38.1335C266.453 36.4211 265.667 34.2398 265.667 31.4828C265.667 27.3141 266.992 24.305 269.5 22.233C272.092 20.0918 275.488 18.9672 279.811 18.9672C284.61 18.9672 288.325 20.1918 291.095 22.5135C293.92 24.8813 295.392 27.6547 295.64 30.873L295.74 32.1655H297.036H314.681H316.194L316.077 30.6571C315.396 21.8955 311.874 14.9231 305.474 9.87576C299.198 4.75685 291.165 2.25155 281.492 2.25155C274.702 2.25155 268.663 3.42747 263.407 5.82044C258.143 8.21706 254.008 11.6852 251.05 16.2297C248.085 20.7869 246.622 26.0801 246.622 32.0566C246.622 38.4762 248.069 43.7752 251.104 47.8171C254.032 51.7168 257.57 54.6454 261.718 56.5673L261.736 56.5758L261.755 56.5838C265.851 58.3405 271.101 60.0819 277.484 61.8129L277.491 61.8148C282.51 63.1476 286.364 64.3729 289.083 65.4871L289.091 65.4901L289.098 65.493C291.81 66.5687 294.002 68.0752 295.709 69.9985L295.72 70.0112L295.732 70.0237C297.412 71.8265 298.297 74.1912 298.297 77.2465C298.297 81.1664 296.915 84.3184 294.148 86.8138C291.4 89.198 287.476 90.4794 282.192 90.4794C277.118 90.4794 273.346 89.1627 270.689 86.7006C268.065 84.1823 266.568 80.9717 266.222 76.982L266.111 75.703H264.827H247.742H246.342V77.103C246.342 83.0983 247.908 88.4041 251.074 92.9646C254.218 97.4945 258.531 100.997 263.965 103.482ZM383.003 105.55L383.422 106.047H384.072H404.938H407.997L405.998 103.732L363.789 54.858L405.306 5.84761L407.259 3.54269H404.238H384.212H383.556L383.136 4.04765L347.802 46.5458V4.94269V3.54269H346.402H330.438H329.038V4.94269V104.647V106.047H330.438H346.402H347.802V104.647V63.8595L383.003 105.55ZM195.045 28.9116L208.917 69.5342H181.049L195.045 28.9116Z" stroke="white" stroke-width="2.8"/>
<path d="M15.2876 144.498H5.5337L3.73692 149.471H0.656738L8.74222 127.236H12.1112L20.1646 149.471H17.0844L15.2876 144.498ZM14.4534 142.124L10.4107 130.83L6.36791 142.124H14.4534Z" fill="white"/>
<path d="M55.3759 149.696C53.9 149.696 52.5738 149.439 51.3973 148.926C50.2423 148.391 49.3332 147.664 48.6701 146.744C48.007 145.803 47.6647 144.723 47.6433 143.504H50.7556C50.8626 144.552 51.2904 145.439 52.039 146.167C52.8091 146.873 53.9214 147.226 55.3759 147.226C56.7663 147.226 57.8572 146.883 58.6486 146.199C59.4614 145.493 59.8678 144.595 59.8678 143.504C59.8678 142.648 59.6325 141.953 59.162 141.418C58.6914 140.883 58.1031 140.477 57.3973 140.199C56.6914 139.921 55.7395 139.621 54.5417 139.3C53.0658 138.915 51.8786 138.53 50.9802 138.145C50.1032 137.76 49.3439 137.161 48.7022 136.349C48.0818 135.514 47.7717 134.402 47.7717 133.012C47.7717 131.792 48.0818 130.712 48.7022 129.771C49.3225 128.83 50.1888 128.103 51.3011 127.589C52.4347 127.076 53.7288 126.819 55.1834 126.819C57.2796 126.819 58.9908 127.343 60.317 128.391C61.6646 129.44 62.424 130.83 62.5951 132.563H59.3866C59.2796 131.707 58.8304 130.958 58.039 130.317C57.2475 129.653 56.1994 129.322 54.8946 129.322C53.6754 129.322 52.6807 129.643 51.9107 130.284C51.1406 130.905 50.7556 131.782 50.7556 132.915C50.7556 133.728 50.9802 134.391 51.4294 134.905C51.9 135.418 52.4668 135.814 53.1299 136.092C53.8144 136.349 54.7663 136.648 55.9855 136.99C57.4614 137.397 58.6486 137.803 59.547 138.21C60.4454 138.595 61.2154 139.204 61.8571 140.038C62.4988 140.851 62.8197 141.964 62.8197 143.375C62.8197 144.466 62.5309 145.493 61.9534 146.455C61.3758 147.418 60.5202 148.199 59.3866 148.798C58.2529 149.397 56.916 149.696 55.3759 149.696Z" fill="white"/>
<path d="M78.0574 127.108V149.471H75.1376V127.108H78.0574Z" fill="white"/>
<path d="M113.739 127.268V149.471H110.819V132.915L103.44 149.471H101.386L93.9747 132.883V149.471H91.0549V127.268H94.1993L102.413 145.621L110.627 127.268H113.739Z" fill="white"/>
<path d="M141.664 133.653C141.664 135.514 141.022 137.065 139.739 138.306C138.477 139.525 136.541 140.135 133.931 140.135H129.632V149.471H126.712V127.108H133.931C136.455 127.108 138.37 127.718 139.675 128.937C141.001 130.156 141.664 131.728 141.664 133.653ZM133.931 137.728C135.557 137.728 136.755 137.375 137.525 136.669C138.295 135.964 138.68 134.958 138.68 133.653C138.68 130.894 137.097 129.514 133.931 129.514H129.632V137.728H133.931Z" fill="white"/>
<path d="M156.234 147.097H164.063V149.471H153.314V127.108H156.234V147.097Z" fill="white"/>
<path d="M178.105 129.482V136.958H186.254V139.365H178.105V147.065H187.217V149.471H175.185V127.076H187.217V129.482H178.105Z" fill="white"/>
<path d="M228.36 149.471L219.151 139.268V149.471H216.231V127.108H219.151V137.472L228.392 127.108H232.081L221.942 138.306L232.178 149.471H228.36Z" fill="white"/>
<path d="M255.235 149.471L249.909 140.327H246.38V149.471H243.46V127.108H250.679C252.369 127.108 253.791 127.397 254.946 127.974C256.123 128.552 257 129.333 257.577 130.317C258.155 131.301 258.444 132.424 258.444 133.686C258.444 135.226 257.995 136.584 257.096 137.76C256.219 138.937 254.893 139.718 253.118 140.103L258.733 149.471H255.235ZM246.38 137.985H250.679C252.262 137.985 253.449 137.6 254.241 136.83C255.032 136.038 255.428 134.99 255.428 133.686C255.428 132.359 255.032 131.333 254.241 130.605C253.471 129.878 252.283 129.514 250.679 129.514H246.38V137.985Z" fill="white"/>
<path d="M273.922 129.482V136.958H282.071V139.365H273.922V147.065H283.034V149.471H271.002V127.076H283.034V129.482H273.922Z" fill="white"/>
<path d="M308.692 144.498H298.938L297.142 149.471H294.061L302.147 127.236H305.516L313.569 149.471H310.489L308.692 144.498ZM307.858 142.124L303.815 130.83L299.773 142.124H307.858Z" fill="white"/>
<path d="M338.879 127.108V129.482H332.783V149.471H329.863V129.482H323.735V127.108H338.879Z" fill="white"/>
<path d="M353.414 127.108V149.471H350.494V127.108H353.414Z" fill="white"/>
<path d="M384.893 127.108L376.454 149.471H373.085L364.647 127.108H367.759L374.786 146.391L381.813 127.108H384.893Z" fill="white"/>
<path d="M399.035 129.482V136.958H407.185V139.365H399.035V147.065H408.148V149.471H396.116V127.076H408.148V129.482H399.035Z" fill="white"/>
<path d="M61.2197 169.002V181.422H59.9597V171.504L55.5317 181.422H54.6137L50.1857 171.54V181.422H48.9257V169.002H50.2577L55.0637 179.766L59.8697 169.002H61.2197Z" fill="#3A3A3A"/>
<path d="M84.508 178.434H78.784L77.686 181.422H76.354L80.944 169.002H82.366L86.938 181.422H85.606L84.508 178.434ZM84.13 177.39L81.646 170.586L79.162 177.39H84.13Z" fill="#3A3A3A"/>
<path d="M108.814 181.422L103.36 175.608V181.422H102.1V168.84H103.36V174.726L108.814 168.84H110.416L104.53 175.122L110.47 181.422H108.814Z" fill="#3A3A3A"/>
<path d="M126.731 169.866V174.564H131.501V175.608H126.731V180.378H132.041V181.422H125.471V168.822H132.041V169.866H126.731Z" fill="#3A3A3A"/>
<path d="M167.003 168.84V181.422H165.743V168.84H167.003Z" fill="#3A3A3A"/>
<path d="M190.358 168.84V169.884H186.866V181.422H185.606V169.884H182.096V168.84H190.358Z" fill="#3A3A3A"/>
<path d="M227.383 181.548C226.555 181.548 225.823 181.404 225.187 181.116C224.563 180.828 224.071 180.426 223.711 179.91C223.351 179.394 223.159 178.818 223.135 178.182H224.467C224.527 178.794 224.797 179.334 225.277 179.802C225.757 180.258 226.459 180.486 227.383 180.486C228.235 180.486 228.907 180.27 229.399 179.838C229.903 179.394 230.155 178.836 230.155 178.164C230.155 177.624 230.017 177.192 229.741 176.868C229.465 176.532 229.123 176.286 228.715 176.13C228.307 175.962 227.743 175.782 227.023 175.59C226.183 175.362 225.517 175.14 225.025 174.924C224.533 174.708 224.113 174.372 223.765 173.916C223.417 173.46 223.243 172.842 223.243 172.062C223.243 171.414 223.411 170.838 223.747 170.334C224.083 169.818 224.557 169.416 225.169 169.128C225.781 168.84 226.483 168.696 227.275 168.696C228.439 168.696 229.375 168.984 230.083 169.56C230.803 170.124 231.217 170.856 231.325 171.756H229.957C229.873 171.24 229.591 170.784 229.111 170.388C228.631 169.98 227.983 169.776 227.167 169.776C226.411 169.776 225.781 169.98 225.277 170.388C224.773 170.784 224.521 171.33 224.521 172.026C224.521 172.554 224.659 172.98 224.935 173.304C225.211 173.628 225.553 173.874 225.961 174.042C226.381 174.21 226.945 174.39 227.653 174.582C228.469 174.81 229.129 175.038 229.633 175.266C230.137 175.482 230.563 175.818 230.911 176.274C231.259 176.73 231.433 177.342 231.433 178.11C231.433 178.698 231.277 179.256 230.965 179.784C230.653 180.312 230.191 180.738 229.579 181.062C228.967 181.386 228.235 181.548 227.383 181.548Z" fill="#3A3A3A"/>
<path d="M248.268 168.84V181.422H247.008V168.84H248.268Z" fill="#3A3A3A"/>
<path d="M276.555 169.002V181.422H275.295V171.504L270.867 181.422H269.949L265.521 171.54V181.422H264.261V169.002H265.593L270.399 179.766L275.205 169.002H276.555Z" fill="#3A3A3A"/>
<path d="M300.6 172.458C300.6 173.538 300.246 174.408 299.538 175.068C298.83 175.728 297.768 176.058 296.352 176.058H293.814V181.422H292.554V168.84H296.352C297.756 168.84 298.812 169.17 299.52 169.83C300.24 170.49 300.6 171.366 300.6 172.458ZM296.352 174.978C298.32 174.978 299.304 174.138 299.304 172.458C299.304 171.618 299.07 170.982 298.602 170.55C298.134 170.118 297.384 169.902 296.352 169.902H293.814V174.978H296.352Z" fill="#3A3A3A"/>
<path d="M317.114 180.396H321.632V181.422H315.854V168.84H317.114V180.396Z" fill="#3A3A3A"/>
<path d="M337.83 169.866V174.564H342.6V175.608H337.83V180.378H343.14V181.422H336.57V168.822H343.14V169.866H337.83Z" fill="#3A3A3A"/>
<path d="M358.979 181.512C358.715 181.512 358.493 181.422 358.313 181.242C358.145 181.062 358.061 180.84 358.061 180.576C358.061 180.312 358.145 180.096 358.313 179.928C358.493 179.748 358.715 179.658 358.979 179.658C359.231 179.658 359.441 179.748 359.609 179.928C359.789 180.096 359.879 180.312 359.879 180.576C359.879 180.84 359.789 181.062 359.609 181.242C359.441 181.422 359.231 181.512 358.979 181.512Z" fill="#3A3A3A"/>
</svg>
